{"title":"Molly Anty Rocks (2012) Malayalam Movie SCREENER XviD - Exclusiv","uid":8018506,"size":657628431,"categoryP":"video","categoryS":"movies","magnet":"?xt=urn:btih:2b992c69b76d388155f96771038ada6be95e62b2&amp;dn=Molly+Anty+Rocks+%282012%29+Malayalam+Movie+SCREENER+XviD+-+Exclusiv&amp;tr=udp%3A%2F%2Ftracker.openbittorrent.com%3A80&amp;tr=udp%3A%2F%2Fopen.demonii.com%3A1337&amp;tr=udp%3A%2F%2Ftracker.coppersurfer.tk%3A6969&amp;tr=udp%3A%2F%2Fexodus.desync.com%3A6969","seeders":0,"leechers":1,"uploader":"tykoon123","files":-1,"time":1358155888,"description":"Poster: &lt;a href=&quot;\nhttp://www.shotpix.com/images/49981311060566852168.jpg&quot; rel=&quot;nofollow&quot; target=&quot;_NEW&quot;&gt;\nhttp://www.shotpix.com/images/49981311060566852168.jpg&lt;/a&gt;\n\nInfo:\n\nFormat : AVI\nFormat/Info : Audio Video Interleave\nFile size : 627 MiB\nDuration : 2h 3mn\nOverall bit rate : 707 Kbps\n\nVideo\nID : 0\nFormat : AVC\nFormat/Info : Advanced Video Codec\nFormat profile : &lt;a class=&quot;__cf_email__&quot; href=&quot;/cdn-cgi/l/email-protection&quot; data-cfemail=&quot;b8f0d1dfd0f8f48a9689&quot;&gt;[email&amp;#160;protected]&lt;/a&gt;&lt;script cf-hash='f9e31' type=&quot;text/javascript&quot;&gt;\n/* &lt;![CDATA[ */!function(){try{var t=&quot;currentScript&quot;in document?document.currentScript:function(){for(var t=document.getElementsByTagName(&quot;script&quot;),e=t.length;e--;)if(t[e].getAttribute(&quot;cf-hash&quot;))return t[e]}();if(t&amp;&amp;t.previousSibling){var e,r,n,i,c=t.previousSibling,a=c.getAttribute(&quot;data-cfemail&quot;);if(a){for(e=&quot;&quot;,r=parseInt(a.substr(0,2),16),n=2;a.length-n;n+=2)i=parseInt(a.substr(n,2),16)^r,e+=String.fromCharCode(i);e=document.createTextNode(e),c.parentNode.replaceChild(e,c)}}}catch(u){}}();/* ]]&gt; */&lt;/script&gt;\nFormat settings, CABAC : Yes\nFormat settings, ReFrames : 3 frames\nCodec ID : H264\nDuration : 2h 3mn\nBit rate : 630 Kbps\nWidth : 624 pixels\nHeight : 256 pixels\nDisplay aspect ratio : 2.40:1\nFrame rate mode : Variable\nFrame rate : 29.970 fps\nColor space : YUV\nChroma subsampling : 4:2:0\nBit depth : 8 bits\nScan type : Progressive\nBits/(Pixel*Frame) : 0.132\nStream size : 558 MiB (89%)\nWriting library : x264 core 120 r2151 a3f4407\n\nAudio\nID : 1\nFormat : MPEG Audio\nFormat version : Version 1\nFormat profile : Layer 3\nCodec ID : 55\nCodec ID/Hint : MP3\nDuration : 2h 3mn\nSource duration : 2h 3mn\nBit rate mode : Constant\nBit rate : 64.0 Kbps\nChannel(s) : 2 channels\nSampling rate : 48.0 KHz\nCompression mode : Lossy\nStream size : 56.7 MiB (9%)\nAlignment : Split accross interleaves\nInterleave, duration : 24 ms (0.72 video frame)\n\nScreens: &lt;a href=&quot;\nhttp://www.shotpix.com/images/85488303496741672624.png&quot; rel=&quot;nofollow&quot; target=&quot;_NEW&quot;&gt;\nhttp://www.shotpix.com/images/85488303496741672624.png&lt;/a&gt; &lt;a href=&quot;\nhttp://www.shotpix.com/images/79092101893431869653.png&quot; rel=&quot;nofollow&quot; target=&quot;_NEW&quot;&gt;\nhttp://www.shotpix.com/images/79092101893431869653.png&lt;/a&gt; &lt;a href=&quot;\nhttp://www.shotpix.com/images/42962897661406142418.png&quot; rel=&quot;nofollow&quot; target=&quot;_NEW&quot;&gt;\nhttp://www.shotpix.com/images/42962897661406142418.png&lt;/a&gt; &lt;a href=&quot;\nhttp://www.shotpix.com/images/02054495901036730111.png&quot; rel=&quot;nofollow&quot; target=&quot;_NEW&quot;&gt;\nhttp://www.shotpix.com/images/02054495901036730111.png&lt;/a&gt; &lt;a href=&quot;\nhttp://www.shotpix.com/images/49169245573552579121.png&quot; rel=&quot;nofollow&quot; target=&quot;_NEW&quot;&gt;\nhttp://www.shotpix.com/images/49169245573552579121.png&lt;/a&gt; &lt;a href=&quot;\nhttp://www.shotpix.com/images/13880686068988967600.png&quot; rel=&quot;nofollow&quot; target=&quot;_NEW&quot;&gt;\nhttp://www.shotpix.com/images/13880686068988967600.png&lt;/a&gt; &lt;a href=&quot;\nhttp://www.shotpix.com/images/26746026251148148778.png&quot; rel=&quot;nofollow&quot; target=&quot;_NEW&quot;&gt;\nhttp://www.shotpix.com/images/26746026251148148778.png&lt;/a&gt; &lt;a href=&quot;\nhttp://www.shotpix.com/images/15016419586454624204.png&quot; rel=&quot;nofollow&quot; target=&quot;_NEW&quot;&gt;\nhttp://www.shotpix.com/images/15016419586454624204.png&lt;/a&gt; &lt;a href=&quot;\nhttp://www.shotpix.com/images/78907688351068200790.png&quot; rel=&quot;nofollow&quot; target=&quot;_NEW&quot;&gt;\nhttp://www.shotpix.com/images/78907688351068200790.png&lt;/a&gt; &lt;a href=&quot;\nhttp://www.shotpix.com/images/87424921894449821876.png&quot; rel=&quot;nofollow&quot; target=&quot;_NEW&quot;&gt;\nhttp://www.shotpix.com/images/87424921894449821876.png&lt;/a&gt; &lt;a href=&quot;\nhttp://www.shotpix.com/images/93117892722452773040.png&quot; rel=&quot;nofollow&quot; target=&quot;_NEW&quot;&gt;\nhttp://www.shotpix.com/images/93117892722452773040.png&lt;/a&gt;\n\n\n","torrent":{"xt":"urn:btih:2b992c69b76d388155f96771038ada6be95e62b2","amp;dn":"Molly+Anty+Rocks+%282012%29+Malayalam+Movie+SCREENER+XviD+-+Exclusiv","amp;tr":["udp%3A%2F%2Ftracker.openbittorrent.com%3A80","udp%3A%2F%2Fopen.demonii.com%3A1337","udp%3A%2F%2Ftracker.coppersurfer.tk%3A6969","udp%3A%2F%2Fexodus.desync.com%3A6969"],"infoHash":"2b992c69b76d388155f96771038ada6be95e62b2","infoHashBuffer":{"type":"Buffer","data":[43,153,44,105,183,109,56,129,85,249,103,113,3,138,218,107,233,94,98,178]},"announce":[],"urlList":[]}}